<?xml version="1.0" encoding="utf-8"?>
<!-- Generator: Adobe Illustrator 18.1.1, SVG Export Plug-In . SVG Version: 6.00 Build 0)  -->
<svg version="1.1" xmlns="http://www.w3.org/2000/svg" xmlns:xlink="http://www.w3.org/1999/xlink" x="0px" y="0px"
	 viewBox="27 50.7 203 51.3" enable-background="new 27 50.7 203 51.3" xml:space="preserve">
<g id="Layer_1" display="none">
	<g id="Group_4" transform="translate(2633.455 -9.527)" display="inline">
		<path id="Path_16" fill="#C70000" d="M-2539.1,101.8c0,0.5-0.4,0.8-0.8,0.8h-8.7c-0.5,0-1-0.1-1.5-0.3l0,0h0l-0.3-0.1h0l-0.9-0.5
			l-12.6-6.5c-0.8-0.5-1.8-0.7-2.8-0.5l0.9-0.5l0.8-0.4l1.2-0.6l1.2-0.6l0,0c1-0.4,2.1-0.6,3.2-0.6c1.1,0,2.2,0.2,3.2,0.7l0,0
			l1.1,0.6l5.4,2.8l4.2,2.2l5.7,3l0,0h0l0.1,0l0,0C-2539.2,101.3-2539.1,101.5-2539.1,101.8z"/>
		<path id="Path_17" fill="#C70000" d="M-2556.4,91.7c-1-0.4-2.1-0.7-3.2-0.7c-1.1,0-2.2,0.2-3.2,0.6c0,0,0,0,0,0
			c-0.4,0.2-0.8,0.4-1.2,0.6l-1.2,0.6l-0.8,0.4l-0.9,0.5l-3.4,1.8l-7.3,3.8h0l-1.7,0.9l0,0h0l0,0c-1.9,0.9-4.1,1.3-6.2,1.3
			c-8.4,0-15.2-6.8-15.2-15.2c0,0,0,0,0,0c0-8.4,6.8-15.2,15.2-15.2l0,0c4.6,0,9,2.1,11.9,5.7c0.1,0.2,0.3,0.4,0.4,0.5
			c0.3,0.5,0.4,1,0.4,1.6c0,1.7-1.3,3-3,3c-0.9,0-1.7-0.4-2.3-1.1c-0.1-0.1-0.1-0.1-0.1-0.2l0,0c-1.8-2.2-4.4-3.5-7.2-3.5
			c-5.1,0-9.2,4.1-9.2,9.2c0,5.1,4.1,9.2,9.2,9.2c1.2,0,2.3-0.2,3.4-0.6c0.6-0.2,1.2-0.6,1.8-0.9l0,0l8-4.2l0,0l1.9-1l0.2-0.1
			l2.5-1.3h0l0.2-0.1l0.3-0.1h0c0.4-0.2,0.9-0.3,1.3-0.3c0.3,0,0.6,0,0.9,0.1c0.1,0,0.2,0.1,0.3,0.1l0.4,0.2l0.4,0.2l4.5,2.4
			L-2556.4,91.7z"/>
		<path id="Path_18" fill="#C70000" d="M-2552.6,81.1c0,3-2.2,5.4-4.9,5.4h-1.8l7,3.7c3.1-2,4.9-5.4,4.9-9.1
			c0-5.8-4.5-10.6-10.1-10.6h-11.4l3.6,5.2h7.8C-2554.8,75.7-2552.6,78.1-2552.6,81.1z"/>
	</g>
	<g id="Group_3" transform="translate(-15.277 -68.08)" display="inline">
		<g id="Group_1" transform="translate(15.581 95.01)">
			<path id="Path_1" d="M106.4,59.6V65h-2.9V51.2h7.9c0.6,0,1.1,0.1,1.7,0.2c1,0.3,1.8,1.1,2.1,2c0.2,0.6,0.3,1.3,0.3,1.9
				c0,0.7-0.1,1.3-0.3,1.9c-0.2,0.4-0.4,0.8-0.7,1.2c-0.2,0.3-0.5,0.5-0.9,0.6c-0.2,0.1-0.5,0.2-0.7,0.3l3,5.6h-3.5l-2.8-5.4H106.4z
				 M106.4,57.4h3.4c0.3,0,0.6,0,0.9-0.1c0.2-0.1,0.5-0.2,0.7-0.3c0.2-0.2,0.4-0.4,0.5-0.6c0.1-0.3,0.2-0.6,0.2-0.9
				c0-0.3,0-0.6-0.2-0.9c-0.1-0.2-0.3-0.4-0.5-0.6c-0.2-0.2-0.4-0.3-0.7-0.3c-0.3-0.1-0.6-0.1-0.9-0.1h-3.4V57.4z"/>
			<path id="Path_2" d="M127.6,59.2h-7.8c0.1,1,0.4,1.9,1,2.6c0.6,0.6,1.4,0.9,2.3,0.8h4.7V65h-5.5c-1.9,0-3.3-0.6-4.3-1.8
				c-1-1.2-1.5-2.9-1.5-5.1c0-2.2,0.5-4,1.5-5.1c1-1.2,2.4-1.8,4.3-1.8h5.5v2.4h-4.7c-0.3,0-0.7,0-1,0.1c-0.4,0.1-0.7,0.2-1,0.4
				c-0.3,0.3-0.6,0.6-0.8,1c-0.3,0.6-0.4,1.2-0.5,1.9h7.8V59.2z"/>
			<path id="Path_3" d="M141.3,53.5h-7.5c-0.4,0-0.9,0.1-1.2,0.4c-0.4,0.3-0.6,0.8-0.5,1.2c0,0.3,0,0.5,0.1,0.8
				c0.1,0.2,0.2,0.4,0.4,0.5c0.2,0.1,0.4,0.2,0.6,0.3c0.2,0.1,0.4,0.1,0.7,0.1h4.3c0.4,0,0.8,0.1,1.2,0.2c0.5,0.1,0.9,0.4,1.3,0.6
				c0.4,0.3,0.8,0.8,1,1.3c0.3,0.6,0.4,1.3,0.4,2c0,0.7-0.1,1.4-0.4,2c-0.5,0.9-1.3,1.6-2.3,1.9c-0.4,0.1-0.8,0.2-1.2,0.2h-9v-2.4
				h7.6c0.5,0,0.9-0.2,1.3-0.5c0.3-0.3,0.5-0.8,0.5-1.2c0-0.5-0.2-0.9-0.5-1.2c-0.3-0.3-0.8-0.5-1.3-0.5h-4.3
				c-0.4,0-0.8-0.1-1.3-0.2c-0.5-0.1-0.9-0.3-1.3-0.6c-0.4-0.3-0.8-0.8-1-1.2c-0.3-0.6-0.4-1.3-0.4-2c0-0.7,0.1-1.4,0.4-2
				c0.2-0.5,0.6-0.9,1-1.2c0.4-0.3,0.8-0.5,1.3-0.6c0.4-0.1,0.8-0.2,1.3-0.2h8.8V53.5z"/>
			<path id="Path_4" d="M143.2,55.3c0.2-0.8,0.6-1.6,1.1-2.3c0.6-0.7,1.3-1.2,2.1-1.5c1.1-0.4,2.2-0.6,3.4-0.6
				c1.1,0,2.3,0.2,3.4,0.6c0.8,0.3,1.5,0.8,2.1,1.5c0.5,0.7,0.9,1.4,1.1,2.3c0.4,1.8,0.4,3.7,0,5.6c-0.2,0.8-0.6,1.6-1.1,2.3
				c-0.6,0.7-1.3,1.2-2.1,1.5c-1.1,0.4-2.2,0.6-3.4,0.6c-1.2,0-2.3-0.2-3.4-0.6c-0.8-0.3-1.5-0.8-2.1-1.5c-0.5-0.7-0.9-1.4-1.1-2.3
				C142.8,59,142.8,57.1,143.2,55.3z M147.7,53.7c-0.5,0.2-0.9,0.6-1.2,1.1c-0.3,0.5-0.5,1-0.5,1.5c-0.2,1.2-0.2,2.4,0,3.6
				c0.1,0.5,0.2,1.1,0.5,1.5c0.3,0.5,0.7,0.8,1.2,1.1c0.6,0.3,1.4,0.4,2.1,0.4c0.7,0,1.4-0.1,2.1-0.4c0.5-0.2,0.9-0.6,1.2-1.1
				c0.3-0.5,0.5-1,0.5-1.5c0.2-1.2,0.2-2.4,0-3.6c-0.1-0.5-0.2-1.1-0.5-1.5c-0.3-0.5-0.7-0.8-1.2-1.1c-0.6-0.3-1.3-0.4-2.1-0.4
				C149.1,53.2,148.4,53.4,147.7,53.7L147.7,53.7z"/>
			<path id="Path_5" d="M160.8,51.2v9.3c0,0.7,0.3,1.4,0.8,1.8c0.7,0.5,1.5,0.7,2.3,0.7c0.8,0.1,1.6-0.2,2.3-0.7
				c0.5-0.4,0.9-1.1,0.8-1.8v-9.3h2.9v9.4c0,0.7-0.1,1.4-0.5,2c-0.3,0.6-0.7,1.1-1.3,1.5c-0.6,0.4-1.2,0.7-1.9,0.9
				c-0.8,0.2-1.6,0.3-2.4,0.3c-0.8,0-1.6-0.1-2.4-0.3c-0.7-0.2-1.3-0.5-1.9-0.9c-0.5-0.4-1-0.9-1.3-1.5c-0.3-0.6-0.5-1.3-0.5-2v-9.4
				H160.8z"/>
			<path id="Path_6" d="M174.4,59.6V65h-2.9V51.2h7.9c0.6,0,1.1,0.1,1.7,0.2c1,0.3,1.8,1.1,2.1,2c0.2,0.6,0.3,1.3,0.3,1.9
				c0,0.7-0.1,1.3-0.3,1.9c-0.2,0.4-0.4,0.8-0.7,1.2c-0.2,0.3-0.5,0.5-0.9,0.6c-0.2,0.1-0.5,0.2-0.7,0.3l3,5.6h-3.5l-2.8-5.4H174.4z
				 M174.4,57.4h3.4c0.3,0,0.6,0,0.9-0.1c0.2-0.1,0.5-0.2,0.7-0.3c0.2-0.2,0.4-0.4,0.5-0.6c0.1-0.3,0.2-0.6,0.2-0.9
				c0-0.3,0-0.6-0.2-0.9c-0.1-0.2-0.3-0.4-0.5-0.6c-0.2-0.2-0.4-0.3-0.7-0.3c-0.3-0.1-0.6-0.1-0.9-0.1h-3.4V57.4z"/>
			<path id="Path_7" d="M196.1,53.5h-5c-1-0.1-2,0.4-2.6,1.2c-0.6,1-0.9,2.2-0.8,3.4c-0.1,1.2,0.2,2.4,0.8,3.4
				c0.6,0.8,1.6,1.3,2.6,1.2h5V65h-5.8c-1.9,0-3.3-0.6-4.3-1.8c-1-1.2-1.5-2.9-1.5-5.1c0-2.2,0.5-4,1.5-5.1c1-1.2,2.4-1.8,4.3-1.8
				h5.9V53.5z"/>
			<path id="Path_8" d="M207.5,59.2h-7.8c0.1,1,0.4,1.9,1,2.6c0.6,0.6,1.4,0.9,2.3,0.8h4.7V65h-5.5c-1.9,0-3.3-0.6-4.3-1.8
				c-1-1.2-1.5-2.9-1.5-5.1c0-2.2,0.5-4,1.5-5.1c1-1.2,2.4-1.8,4.3-1.8h5.5v2.4H203c-0.3,0-0.7,0-1,0.1c-0.4,0.1-0.7,0.2-1,0.4
				c-0.3,0.3-0.6,0.6-0.8,1c-0.3,0.6-0.4,1.2-0.5,1.9h7.8L207.5,59.2z"/>
			<path id="Path_9" d="M221.2,53.5h-7.5c-0.4,0-0.9,0.1-1.2,0.4c-0.4,0.3-0.6,0.8-0.5,1.2c0,0.3,0,0.5,0.1,0.8
				c0.1,0.2,0.2,0.4,0.4,0.5c0.2,0.1,0.4,0.2,0.6,0.3c0.2,0.1,0.4,0.1,0.7,0.1h4.3c0.4,0,0.8,0.1,1.2,0.2c0.5,0.1,0.9,0.4,1.3,0.6
				c0.4,0.3,0.8,0.8,1,1.3c0.3,0.6,0.4,1.3,0.4,2c0,0.7-0.1,1.4-0.4,2c-0.5,0.9-1.3,1.6-2.3,1.9c-0.4,0.1-0.8,0.2-1.2,0.2h-9v-2.4
				h7.6c0.2,0,0.5,0,0.7-0.1c0.2-0.1,0.4-0.2,0.6-0.4c0.2-0.2,0.3-0.3,0.4-0.5c0.1-0.2,0.1-0.4,0.1-0.7c0-0.5-0.2-0.9-0.5-1.2
				c-0.3-0.3-0.8-0.5-1.3-0.5h-4.3c-0.4,0-0.8-0.1-1.3-0.2c-0.5-0.1-0.9-0.3-1.3-0.6c-0.4-0.3-0.8-0.8-1-1.2c-0.3-0.6-0.4-1.3-0.4-2
				c0-0.7,0.1-1.4,0.4-2c0.2-0.5,0.6-0.9,1-1.2c0.4-0.3,0.8-0.5,1.3-0.6c0.4-0.1,0.8-0.2,1.3-0.2h8.8V53.5z"/>
		</g>
		<g id="Group_2" transform="translate(15.277 68.08)">
			<path id="Path_10" d="M115.2,64.5h-5c-1-0.1-2,0.4-2.6,1.2c-0.6,1-0.9,2.2-0.8,3.4c-0.1,1.2,0.2,2.4,0.8,3.4
				c0.6,0.8,1.6,1.3,2.6,1.2h5V76h-5.9c-1.9,0-3.3-0.6-4.3-1.8c-1-1.2-1.5-2.9-1.5-5.1c0-2.2,0.5-4,1.5-5.1c1-1.2,2.4-1.8,4.3-1.8
				h5.9V64.5z"/>
			<path id="Path_11" d="M116.6,62.2h2.9V68h5.5v-5.8h2.9V76H125v-5.8h-5.5V76h-2.9V62.2z"/>
			<path id="Path_12" d="M134.7,62.2h3l5.8,13.8h-3.1l-1.3-3.4h-5.7L132,76h-3.1L134.7,62.2z M134.2,70.5h3.9l-2-4.9L134.2,70.5z"/>
			<path id="Path_13" d="M144.4,76V62.2h3.7l5.6,10.1h0.1V62.2h2.9V76h-3.7l-5.6-10.1h-0.1V76H144.4z"/>
			<path id="Path_14" d="M163.3,62.2h3l5.8,13.8H169l-1.4-3.4H162l-1.4,3.4h-3.1L163.3,62.2z M162.9,70.5h3.9l-2-4.9L162.9,70.5z"/>
			<path id="Path_15" d="M175.9,76H173V62.2h2.9v6.3h0.3l5.2-6.3h3.6l-5.9,6.7L185,76h-3.7l-5.1-6.8h-0.3V76z"/>
		</g>
	</g>
	<rect x="97.7" y="55.9" display="inline" width="1" height="41"/>
</g>
<g id="Layer_2">
	<g id="Group_4_1_" transform="translate(2633.455 -9.527)">
		<path id="Path_16_1_" fill="#FFFFFF" d="M-2539.1,102.1c0,0.5-0.4,0.8-0.8,0.8h-8.7c-0.5,0-1-0.1-1.5-0.3l0,0h0l-0.3-0.1h0
			l-0.9-0.5l-12.6-6.5c-0.8-0.5-1.8-0.7-2.8-0.5l0.9-0.5l0.8-0.4l1.2-0.6l1.2-0.6l0,0c1-0.4,2.1-0.6,3.2-0.6c1.1,0,2.2,0.2,3.2,0.7
			l0,0l1.1,0.6l5.4,2.8l4.2,2.2l5.7,3l0,0h0l0.1,0l0,0C-2539.2,101.5-2539.1,101.8-2539.1,102.1z"/>
		<path id="Path_17_1_" fill="#FFFFFF" d="M-2556.4,92c-1-0.4-2.1-0.7-3.2-0.7c-1.1,0-2.2,0.2-3.2,0.6c0,0,0,0,0,0
			c-0.4,0.2-0.8,0.4-1.2,0.6l-1.2,0.6l-0.8,0.4l-0.9,0.5l-3.4,1.8l-7.3,3.8h0l-1.7,0.9l0,0h0l0,0c-1.9,0.9-4.1,1.3-6.2,1.3
			c-8.4,0-15.2-6.8-15.2-15.2c0,0,0,0,0,0c0-8.4,6.8-15.2,15.2-15.2l0,0c4.6,0,9,2.1,11.9,5.7c0.1,0.2,0.3,0.4,0.4,0.5
			c0.3,0.5,0.4,1,0.4,1.6c0,1.7-1.3,3-3,3c-0.9,0-1.7-0.4-2.3-1.1c-0.1-0.1-0.1-0.1-0.1-0.2l0,0c-1.8-2.2-4.4-3.5-7.2-3.5
			c-5.1,0-9.2,4.1-9.2,9.2c0,5.1,4.1,9.2,9.2,9.2c1.2,0,2.3-0.2,3.4-0.6c0.6-0.2,1.2-0.6,1.8-0.9l0,0l8-4.2l0,0l1.9-1l0.2-0.1
			l2.5-1.3h0l0.2-0.1l0.3-0.1h0c0.4-0.2,0.9-0.3,1.3-0.3c0.3,0,0.6,0,0.9,0.1c0.1,0,0.2,0.1,0.3,0.1l0.4,0.2l0.4,0.2l4.5,2.4
			L-2556.4,92z"/>
		<path id="Path_18_1_" fill="#FFFFFF" d="M-2552.6,81.3c0,3-2.2,5.4-4.9,5.4h-1.8l7,3.7c3.1-2,4.9-5.4,4.9-9.1
			c0-5.8-4.5-10.6-10.1-10.6h-11.4l3.6,5.2h7.8C-2554.8,75.9-2552.6,78.3-2552.6,81.3z"/>
	</g>
	<g id="Group_3_1_" transform="translate(-15.277 -68.08)">
		<g id="Group_1_1_" transform="translate(15.581 95.01)">
			<path id="Path_1_1_" fill="#FFFFFF" d="M106.4,59.8v5.4h-2.9V51.4h7.9c0.6,0,1.1,0.1,1.7,0.2c1,0.3,1.8,1.1,2.1,2
				c0.2,0.6,0.3,1.3,0.3,1.9c0,0.7-0.1,1.3-0.3,1.9c-0.2,0.4-0.4,0.8-0.7,1.2c-0.2,0.3-0.5,0.5-0.9,0.6c-0.2,0.1-0.5,0.2-0.7,0.3
				l3,5.6h-3.5l-2.8-5.4H106.4z M106.4,57.6h3.4c0.3,0,0.6,0,0.9-0.1c0.2-0.1,0.5-0.2,0.7-0.3c0.2-0.2,0.4-0.4,0.5-0.6
				c0.1-0.3,0.2-0.6,0.2-0.9c0-0.3,0-0.6-0.2-0.9c-0.1-0.2-0.3-0.4-0.5-0.6c-0.2-0.2-0.4-0.3-0.7-0.3c-0.3-0.1-0.6-0.1-0.9-0.1h-3.4
				V57.6z"/>
			<path id="Path_2_1_" fill="#FFFFFF" d="M127.6,59.5h-7.8c0.1,1,0.4,1.9,1,2.6c0.6,0.6,1.4,0.9,2.3,0.8h4.7v2.4h-5.5
				c-1.9,0-3.3-0.6-4.3-1.8c-1-1.2-1.5-2.9-1.5-5.1c0-2.2,0.5-4,1.5-5.1c1-1.2,2.4-1.8,4.3-1.8h5.5v2.4h-4.7c-0.3,0-0.7,0-1,0.1
				c-0.4,0.1-0.7,0.2-1,0.4c-0.3,0.3-0.6,0.6-0.8,1c-0.3,0.6-0.4,1.2-0.5,1.9h7.8V59.5z"/>
			<path id="Path_3_1_" fill="#FFFFFF" d="M141.3,53.8h-7.5c-0.4,0-0.9,0.1-1.2,0.4c-0.4,0.3-0.6,0.8-0.5,1.2c0,0.3,0,0.5,0.1,0.8
				c0.1,0.2,0.2,0.4,0.4,0.5c0.2,0.1,0.4,0.2,0.6,0.3c0.2,0.1,0.4,0.1,0.7,0.1h4.3c0.4,0,0.8,0.1,1.2,0.2c0.5,0.1,0.9,0.4,1.3,0.6
				c0.4,0.3,0.8,0.8,1,1.3c0.3,0.6,0.4,1.3,0.4,2c0,0.7-0.1,1.4-0.4,2c-0.5,0.9-1.3,1.6-2.3,1.9c-0.4,0.1-0.8,0.2-1.2,0.2h-9v-2.4
				h7.6c0.5,0,0.9-0.2,1.3-0.5c0.3-0.3,0.5-0.8,0.5-1.2c0-0.5-0.2-0.9-0.5-1.2c-0.3-0.3-0.8-0.5-1.3-0.5h-4.3
				c-0.4,0-0.8-0.1-1.3-0.2c-0.5-0.1-0.9-0.3-1.3-0.6c-0.4-0.3-0.8-0.8-1-1.2c-0.3-0.6-0.4-1.3-0.4-2c0-0.7,0.1-1.4,0.4-2
				c0.2-0.5,0.6-0.9,1-1.2c0.4-0.3,0.8-0.5,1.3-0.6c0.4-0.1,0.8-0.2,1.3-0.2h8.8V53.8z"/>
			<path id="Path_4_1_" fill="#FFFFFF" d="M143.2,55.6c0.2-0.8,0.6-1.6,1.1-2.3c0.6-0.7,1.3-1.2,2.1-1.5c1.1-0.4,2.2-0.6,3.4-0.6
				c1.1,0,2.3,0.2,3.4,0.6c0.8,0.3,1.5,0.8,2.1,1.5c0.5,0.7,0.9,1.4,1.1,2.3c0.4,1.8,0.4,3.7,0,5.6c-0.2,0.8-0.6,1.6-1.1,2.3
				c-0.6,0.7-1.3,1.2-2.1,1.5c-1.1,0.4-2.2,0.6-3.4,0.6c-1.2,0-2.3-0.2-3.4-0.6c-0.8-0.3-1.5-0.8-2.1-1.5c-0.5-0.7-0.9-1.4-1.1-2.3
				C142.8,59.3,142.8,57.4,143.2,55.6z M147.7,53.9c-0.5,0.2-0.9,0.6-1.2,1.1c-0.3,0.5-0.5,1-0.5,1.5c-0.2,1.2-0.2,2.4,0,3.6
				c0.1,0.5,0.2,1.1,0.5,1.5c0.3,0.5,0.7,0.8,1.2,1.1c0.6,0.3,1.4,0.4,2.1,0.4c0.7,0,1.4-0.1,2.1-0.4c0.5-0.2,0.9-0.6,1.2-1.1
				c0.3-0.5,0.5-1,0.5-1.5c0.2-1.2,0.2-2.4,0-3.6c-0.1-0.5-0.2-1.1-0.5-1.5c-0.3-0.5-0.7-0.8-1.2-1.1c-0.6-0.3-1.3-0.4-2.1-0.4
				C149.1,53.5,148.4,53.6,147.7,53.9L147.7,53.9z"/>
			<path id="Path_5_1_" fill="#FFFFFF" d="M160.8,51.4v9.3c0,0.7,0.3,1.4,0.8,1.8c0.7,0.5,1.5,0.7,2.3,0.7c0.8,0.1,1.6-0.2,2.3-0.7
				c0.5-0.4,0.9-1.1,0.8-1.8v-9.3h2.9v9.4c0,0.7-0.1,1.4-0.5,2c-0.3,0.6-0.7,1.1-1.3,1.5c-0.6,0.4-1.2,0.7-1.9,0.9
				c-0.8,0.2-1.6,0.3-2.4,0.3c-0.8,0-1.6-0.1-2.4-0.3c-0.7-0.2-1.3-0.5-1.9-0.9c-0.5-0.4-1-0.9-1.3-1.5c-0.3-0.6-0.5-1.3-0.5-2v-9.4
				H160.8z"/>
			<path id="Path_6_1_" fill="#FFFFFF" d="M174.4,59.8v5.4h-2.9V51.4h7.9c0.6,0,1.1,0.1,1.7,0.2c1,0.3,1.8,1.1,2.1,2
				c0.2,0.6,0.3,1.3,0.3,1.9c0,0.7-0.1,1.3-0.3,1.9c-0.2,0.4-0.4,0.8-0.7,1.2c-0.2,0.3-0.5,0.5-0.9,0.6c-0.2,0.1-0.5,0.2-0.7,0.3
				l3,5.6h-3.5l-2.8-5.4H174.4z M174.4,57.6h3.4c0.3,0,0.6,0,0.9-0.1c0.2-0.1,0.5-0.2,0.7-0.3c0.2-0.2,0.4-0.4,0.5-0.6
				c0.1-0.3,0.2-0.6,0.2-0.9c0-0.3,0-0.6-0.2-0.9c-0.1-0.2-0.3-0.4-0.5-0.6c-0.2-0.2-0.4-0.3-0.7-0.3c-0.3-0.1-0.6-0.1-0.9-0.1h-3.4
				V57.6z"/>
			<path id="Path_7_1_" fill="#FFFFFF" d="M196.1,53.8h-5c-1-0.1-2,0.4-2.6,1.2c-0.6,1-0.9,2.2-0.8,3.4c-0.1,1.2,0.2,2.4,0.8,3.4
				c0.6,0.8,1.6,1.3,2.6,1.2h5v2.4h-5.8c-1.9,0-3.3-0.6-4.3-1.8c-1-1.2-1.5-2.9-1.5-5.1c0-2.2,0.5-4,1.5-5.1c1-1.2,2.4-1.8,4.3-1.8
				h5.9V53.8z"/>
			<path id="Path_8_1_" fill="#FFFFFF" d="M207.5,59.5h-7.8c0.1,1,0.4,1.9,1,2.6c0.6,0.6,1.4,0.9,2.3,0.8h4.7v2.4h-5.5
				c-1.9,0-3.3-0.6-4.3-1.8c-1-1.2-1.5-2.9-1.5-5.1c0-2.2,0.5-4,1.5-5.1c1-1.2,2.4-1.8,4.3-1.8h5.5v2.4H203c-0.3,0-0.7,0-1,0.1
				c-0.4,0.1-0.7,0.2-1,0.4c-0.3,0.3-0.6,0.6-0.8,1c-0.3,0.6-0.4,1.2-0.5,1.9h7.8L207.5,59.5z"/>
			<path id="Path_9_1_" fill="#FFFFFF" d="M221.2,53.8h-7.5c-0.4,0-0.9,0.1-1.2,0.4c-0.4,0.3-0.6,0.8-0.5,1.2c0,0.3,0,0.5,0.1,0.8
				c0.1,0.2,0.2,0.4,0.4,0.5c0.2,0.1,0.4,0.2,0.6,0.3c0.2,0.1,0.4,0.1,0.7,0.1h4.3c0.4,0,0.8,0.1,1.2,0.2c0.5,0.1,0.9,0.4,1.3,0.6
				c0.4,0.3,0.8,0.8,1,1.3c0.3,0.6,0.4,1.3,0.4,2c0,0.7-0.1,1.4-0.4,2c-0.5,0.9-1.3,1.6-2.3,1.9c-0.4,0.1-0.8,0.2-1.2,0.2h-9v-2.4
				h7.6c0.2,0,0.5,0,0.7-0.1c0.2-0.1,0.4-0.2,0.6-0.4c0.2-0.2,0.3-0.3,0.4-0.5c0.1-0.2,0.1-0.4,0.1-0.7c0-0.5-0.2-0.9-0.5-1.2
				c-0.3-0.3-0.8-0.5-1.3-0.5h-4.3c-0.4,0-0.8-0.1-1.3-0.2c-0.5-0.1-0.9-0.3-1.3-0.6c-0.4-0.3-0.8-0.8-1-1.2c-0.3-0.6-0.4-1.3-0.4-2
				c0-0.7,0.1-1.4,0.4-2c0.2-0.5,0.6-0.9,1-1.2c0.4-0.3,0.8-0.5,1.3-0.6c0.4-0.1,0.8-0.2,1.3-0.2h8.8V53.8z"/>
		</g>
		<g id="Group_2_1_" transform="translate(15.277 68.08)">
			<path id="Path_10_1_" fill="#FFFFFF" d="M115.2,64.8h-5c-1-0.1-2,0.4-2.6,1.2c-0.6,1-0.9,2.2-0.8,3.4c-0.1,1.2,0.2,2.4,0.8,3.4
				c0.6,0.8,1.6,1.3,2.6,1.2h5v2.4h-5.9c-1.9,0-3.3-0.6-4.3-1.8c-1-1.2-1.5-2.9-1.5-5.1c0-2.2,0.5-4,1.5-5.1c1-1.2,2.4-1.8,4.3-1.8
				h5.9V64.8z"/>
			<path id="Path_11_1_" fill="#FFFFFF" d="M116.6,62.4h2.9v5.8h5.5v-5.8h2.9v13.8H125v-5.8h-5.5v5.8h-2.9V62.4z"/>
			<path id="Path_12_1_" fill="#FFFFFF" d="M134.7,62.4h3l5.8,13.8h-3.1l-1.3-3.4h-5.7l-1.4,3.4h-3.1L134.7,62.4z M134.2,70.7h3.9
				l-2-4.9L134.2,70.7z"/>
			<path id="Path_13_1_" fill="#FFFFFF" d="M144.4,76.3V62.4h3.7l5.6,10.1h0.1V62.4h2.9v13.8h-3.7l-5.6-10.1h-0.1v10.1H144.4z"/>
			<path id="Path_14_1_" fill="#FFFFFF" d="M163.3,62.4h3l5.8,13.8H169l-1.4-3.4H162l-1.4,3.4h-3.1L163.3,62.4z M162.9,70.7h3.9
				l-2-4.9L162.9,70.7z"/>
			<path id="Path_15_1_" fill="#FFFFFF" d="M175.9,76.3H173V62.4h2.9v6.3h0.3l5.2-6.3h3.6l-5.9,6.7l5.9,7.1h-3.7l-5.1-6.8h-0.3V76.3
				z"/>
		</g>
	</g>
	<rect x="97.7" y="56.1" fill="#FFFFFF" width="1" height="41"/>
</g>
</svg>
