<?xml version="1.0" encoding="utf-8"?>
<!-- Generator: Adobe Illustrator 18.1.1, SVG Export Plug-In . SVG Version: 6.00 Build 0)  -->
<svg version="1.1" xmlns="http://www.w3.org/2000/svg" xmlns:xlink="http://www.w3.org/1999/xlink" x="0px" y="0px"
	 viewBox="0 0 150 150" enable-background="new 0 0 150 150" xml:space="preserve">
<g id="Layer_2">
	<circle fill="#C70000" cx="75" cy="75" r="72.3"/>
</g>
<g id="Layer_1">
	<g>
		<g>
			<path fill="#FFFFFF" d="M99.9,98.1c-0.7-0.7-1.9-0.9-2.8,0c0,0,0,0,0,0c-0.9,0.9-0.7,2.1-0.1,2.8c0.4,0.4,0.9,0.6,1.4,0.6
				c0.5,0,1-0.2,1.4-0.6C100.8,100,100.6,98.8,99.9,98.1z"/>
		</g>
	</g>
	<g>
		<g>
			<path fill="#FFFFFF" d="M117.7,60.4c-0.4-1-1.5-1.5-2.5-1.2c-1,0.4-1.5,1.5-1.2,2.5c1.7,4.6,2.5,9.4,2.5,14.3
				c0,22.7-18.4,41.1-41.1,41.1c-8.4,0-16.5-2.5-23.4-7.3c-0.9-0.6-2.1-0.4-2.7,0.5c-0.6,0.9-0.4,2.1,0.5,2.7c7.5,5.2,16.4,8,25.6,8
				c12,0,23.3-4.7,31.8-13.2c8.5-8.5,13.2-19.8,13.2-31.8C120.5,70.7,119.5,65.4,117.7,60.4z"/>
		</g>
	</g>
	<g>
		<g>
			<path fill="#FFFFFF" d="M90.6,33.6c-4.9-1.7-10-2.6-15.2-2.6c-12,0-23.3,4.7-31.8,13.2C35.1,52.7,30.4,64,30.4,76
				c0,9.3,2.8,18.3,8.2,25.9c0.4,0.5,1,0.8,1.6,0.8c0.4,0,0.8-0.1,1.1-0.4c0.9-0.6,1.1-1.8,0.5-2.7c-4.9-6.9-7.5-15.1-7.5-23.6
				c0-22.7,18.4-41.1,41.1-41.1c4.8,0,9.4,0.8,13.8,2.4c1,0.4,2.1-0.2,2.5-1.2C92.1,35.1,91.6,34,90.6,33.6z"/>
		</g>
	</g>
	<g>
		<g>
			<path fill="#FFFFFF" d="M130.5,37c-0.3-0.7-1-1.2-1.8-1.2h-10.3l1.1-1.1c0.8-0.8,0.8-2,0-2.8c-0.8-0.8-2-0.8-2.8,0l-1.1,1.1V22.8
				c0-0.8-0.5-1.5-1.2-1.8c-0.7-0.3-1.6-0.1-2.1,0.4L95,38.6c-0.4,0.4-0.6,0.9-0.6,1.4v6.8c-5.6-3.7-12.2-5.6-19-5.6
				c-19.2,0-34.9,15.6-34.9,34.9s15.6,34.9,34.9,34.9c6.4,0,12.6-1.7,18-5c0.9-0.6,1.2-1.8,0.7-2.7c-0.6-0.9-1.8-1.2-2.7-0.7
				c-4.8,2.9-10.4,4.5-16,4.5C58.4,107,44.5,93.1,44.5,76s13.9-30.9,30.9-30.9c7,0,13.5,2.3,19,6.5v2.6l-3.6,3.6
				c-4.2-3.5-9.6-5.7-15.4-5.7c-13.2,0-23.9,10.7-23.9,23.9s10.7,23.9,23.9,23.9S99.3,89.2,99.3,76c0-5.9-2.1-11.3-5.7-15.4l3.6-3.6
				h2.6c4.2,5.4,6.5,12.1,6.5,19c0,5.8-1.6,11.4-4.6,16.3c-0.6,0.9-0.3,2.1,0.6,2.7c0.3,0.2,0.7,0.3,1,0.3c0.7,0,1.3-0.3,1.7-0.9
				c3.4-5.5,5.2-11.8,5.2-18.3c0-6.8-2-13.4-5.6-19h6.8c0.5,0,1-0.2,1.4-0.6l17.3-17.3C130.6,38.6,130.8,37.8,130.5,37z M95.4,76
				c0,11-9,20-20,20s-20-9-20-20s9-20,20-20c4.8,0,9.2,1.7,12.7,4.5l-4.5,4.5c-2.3-1.7-5.1-2.7-8.2-2.7c-7.6,0-13.7,6.1-13.7,13.7
				c0,7.6,6.1,13.7,13.7,13.7c7.6,0,13.7-6.1,13.7-13.7c0-3.1-1-5.9-2.7-8.2l4.5-4.5C93.7,66.8,95.4,71.2,95.4,76z M74,77.4
				c0.4,0.4,0.9,0.6,1.4,0.6s1-0.2,1.4-0.6l6.8-6.8c1,1.5,1.6,3.4,1.6,5.4c0,5.4-4.4,9.8-9.8,9.8s-9.8-4.4-9.8-9.8
				c0-5.4,4.4-9.8,9.8-9.8c2,0,3.8,0.6,5.4,1.6L74,74.7C73.3,75.4,73.3,76.7,74,77.4z M98.4,50.3v-9.5l13.3-13.3V37L98.4,50.3z
				 M110.6,53.1h-9.5l13.3-13.3h9.5L110.6,53.1z"/>
		</g>
	</g>
	<g>
		<g>
			<path fill="#FFFFFF" d="M46.3,105.1c-0.4-0.4-0.9-0.6-1.4-0.6c-0.5,0-1,0.2-1.4,0.6c-0.4,0.4-0.6,0.9-0.6,1.4s0.2,1,0.6,1.4
				c0.4,0.4,0.9,0.6,1.4,0.6c0.5,0,1-0.2,1.4-0.6c0.4-0.4,0.6-0.9,0.6-1.4S46.7,105.4,46.3,105.1z"/>
		</g>
	</g>
</g>
<g id="Layer_3" display="none">
	<path display="inline" fill="#FFFFFF" d="M45.4,74.1c-10.5,0-19.1,8.6-19.1,19.1s8.6,19.1,19.1,19.1c10.5,0,19.1-8.6,19.1-19.1
		S55.9,74.1,45.4,74.1z M45.4,77.4c7.4,0,13.5,5.1,15.3,11.9c-0.8,3.3-2.7,6.3-5.4,8.4c-2.8,2.3-6.3,3.5-9.9,3.5
		c-3.6,0-7.1-1.2-9.9-3.5c-2.7-2.1-4.5-5.1-5.4-8.4C31.9,82.5,38.1,77.4,45.4,77.4z M45.4,108.9c-7.4,0-13.6-5.1-15.3-12
		c0.9,1.3,2.1,2.4,3.3,3.5c3.4,2.7,7.6,4.2,12,4.2c4.4,0,8.6-1.5,12-4.2c1.2-1,2.4-2.2,3.3-3.4C59,103.8,52.8,108.9,45.4,108.9z"/>
	<path display="inline" fill="#FFFFFF" d="M129.3,83.8c0,0-0.3-0.8-0.4-1.1l-14.2-34.3c-1.7-4.2-4.9-7.6-8.8-9.6l-1.3-3.2
		c-0.9-2.1-2.3-3.9-4.2-5.1c-1.9-1.3-4.1-1.9-6.3-1.9c-6.3,0-11.4,5.1-11.4,11.4v3.8c-2.6,3.2-4.2,7.3-4.2,11.8v1.3h-6.9v-1.3
		c0-4.5-1.6-8.6-4.2-11.8V40c0-6.3-5.1-11.4-11.4-11.4c-2.3,0-4.5,0.7-6.3,1.9c-1.9,1.3-3.3,3-4.2,5.1l-1.3,3.2
		c-3.9,2-7,5.3-8.8,9.6l-3.6,8.8c-0.4,0.8,0.1,1.8,0.9,2.2c0.8,0.4,1.8-0.1,2.2-0.9l3.6-8.8c2.4-5.8,8-9.6,14.3-9.6
		c8.5,0,15.5,7,15.5,15.5v24.8c-4.5-8-13.1-13.5-22.9-13.5c-6.2,0-11.8,2.1-16.3,5.7l3.6-8.7c0.4-0.8-0.1-1.8-0.9-2.2
		s-1.8,0.1-2.2,0.9l-8.3,20.1c-0.1,0.3-0.5,1.2-0.5,1.2c-1.1,2.9-1.7,6-1.7,9.2c0,14.5,11.8,26.3,26.3,26.3
		c14.5,0,26.3-11.8,26.3-26.3v-1.1h6.9v1.1c0,14.5,11.8,26.3,26.3,26.3c14.5,0,26.3-11.8,26.3-26.3C131,89.9,130.4,86.7,129.3,83.8z
		 M52.7,36.8c-1.5,0-3,0.2-4.4,0.5l0.2-0.4c0.6-1.5,1.6-2.7,3-3.6c1.3-0.9,2.9-1.4,4.5-1.4c4.5,0,8.1,3.6,8.1,8.1v0.6
		C60.9,38.2,57,36.8,52.7,36.8z M94,31.9c1.6,0,3.2,0.5,4.5,1.4c1.3,0.9,2.4,2.2,3,3.6l0.2,0.4c-1.4-0.3-2.9-0.5-4.4-0.5
		c-4.3,0-8.2,1.4-11.3,3.8V40C85.9,35.5,89.5,31.9,94,31.9z M81.8,55.6c0-8.5,7-15.5,15.5-15.5c6.3,0,11.9,3.8,14.3,9.6l9.5,22.9
		c-4.5-3.6-10.2-5.7-16.3-5.7c-9.8,0-18.4,5.5-22.9,13.5V55.6z M78.4,60.2v16h-6.9v-16H78.4z M45.3,116.1
		c-12.7,0-22.9-10.3-22.9-22.9s10.3-22.9,22.9-22.9c12.7,0,22.9,10.3,22.9,22.9S58,116.1,45.3,116.1z M71.6,88.8v-9.3h6.9v9.3H71.6z
		 M104.7,116.1c-12.7,0-22.9-10.3-22.9-22.9S92,70.2,104.7,70.2c12.7,0,22.9,10.3,22.9,22.9S117.4,116.1,104.7,116.1z"/>
	<path display="inline" fill="#FFFFFF" d="M117.7,81.4c-0.7,0.6-0.9,1.6-0.3,2.3c1.3,1.7,2.2,3.6,2.7,5.6c-0.8,3.3-2.7,6.3-5.4,8.4
		c-2.8,2.3-6.3,3.5-9.9,3.5c-3.6,0-7.1-1.2-9.9-3.5c-2.7-2.1-4.5-5.1-5.4-8.4c1.7-6.8,7.9-11.9,15.3-11.9c3.2,0,6.2,0.9,8.8,2.7
		c0.8,0.5,1.8,0.3,2.3-0.4c0.5-0.8,0.3-1.8-0.4-2.3c-3.2-2.1-6.8-3.3-10.7-3.3c-10.5,0-19.1,8.6-19.1,19.1s8.6,19.1,19.1,19.1
		s19.1-8.6,19.1-19.1c0-4.2-1.3-8.1-3.8-11.5C119.5,81,118.5,80.8,117.7,81.4z M104.8,108.9c-7.4,0-13.6-5.1-15.3-12
		c0.9,1.3,2.1,2.4,3.3,3.4c3.4,2.7,7.6,4.2,12,4.2c4.4,0,8.6-1.5,12-4.2c1.2-1,2.4-2.2,3.3-3.5C118.5,103.8,112.2,108.9,104.8,108.9
		z"/>
</g>
<g id="Layer_4" display="none">
	<g id="Page-1" display="inline">
		<g id="_x30_37---Waypoint-Flag" transform="translate(0 -1)">
			<path id="Shape" fill="#FFFFFF" d="M125.7,73.8c-6.1-3.1-11.8-7-16.9-11.6c2.6-9.8,4.5-19.8,5.8-29.9c0.3-2.3-1-3.1-1.4-3.3
				c-1.1-0.4-2.4,0-3.1,1c-8.9,10.7-21.1,9.5-34.1,8.2c-13-1.3-26.5-2.6-36.5,8.8c-1.4-1.7-3.7-2.5-5.8-1.9l-0.2,0.1
				c-3,0.8-4.7,3.9-3.9,6.9l19.9,71.2c0.6,2.1,2.5,3.5,4.6,3.5c0.4,0,0.9-0.1,1.3-0.2l1.7-0.5h0c1.2-0.3,2.3-1.2,2.9-2.3
				c0.6-1.1,0.8-2.4,0.4-3.6l-6.2-22.1c9-11.5,21.5-10.3,34.7-9c13.2,1.3,26.9,2.7,36.9-9.3l0,0c1-1.2,1.4-2.8,1.1-4.4
				C126.8,74.7,126.3,74.1,125.7,73.8L125.7,73.8z M57.1,122.3c-0.2,0.4-0.5,0.6-0.9,0.7l-1.7,0.5c-0.8,0.2-1.6-0.2-1.9-1.1
				L32.7,51.2c-0.3-1.2,0.4-2.5,1.6-2.8l0.2-0.1c0.2-0.1,0.4-0.1,0.6-0.1c1,0,1.9,0.7,2.2,1.7l0.2,0.6v0L47.7,87l9.5,34.1
				C57.3,121.5,57.3,121.9,57.1,122.3z M123.4,77.8c-8.9,10.7-21.2,9.5-34.1,8.2c-12.9-1.3-26.2-2.6-36.1,8.4l-8.9-31.9l-3.4-12
				c9-11.5,21.5-10.3,34.7-9c12.6,1.3,25.6,2.6,35.4-7.7c-1.2,9.3-3,18.5-5.4,27.6c-0.3,1.2,0,2.4,1,3.2c5.2,4.7,11,8.8,17.2,12
				C123.8,77,123.6,77.4,123.4,77.8L123.4,77.8z"/>
		</g>
	</g>
</g>
</svg>
