<?xml version="1.0" encoding="utf-8"?>
<!-- Generator: Adobe Illustrator 18.1.1, SVG Export Plug-In . SVG Version: 6.00 Build 0)  -->
<svg version="1.1" id="Capa_1" xmlns="http://www.w3.org/2000/svg" xmlns:xlink="http://www.w3.org/1999/xlink" x="0px" y="0px"
	 viewBox="0 0 150 150" enable-background="new 0 0 150 150" xml:space="preserve">
<g>
	<g>
		<path fill="#C70000" d="M136.8,22.3H13.2C5.9,22.3,0,28.2,0,35.4v79.1c0,7.3,5.9,13.2,13.2,13.2h123.6c7.2,0,13.2-5.9,13.2-13.2
			V35.4C150,28.2,144.1,22.3,136.8,22.3z M135,31.1c-2.7,2.7-49,48.8-50.6,50.4c-2.5,2.5-5.8,3.9-9.3,3.9s-6.8-1.4-9.3-3.9
			C64.6,80.4,18.8,34.8,15,31.1H135z M8.8,112.8V37.2l38,37.8L8.8,112.8z M15,118.9l38-37.7l6.5,6.4c4.2,4.2,9.7,6.4,15.5,6.4
			s11.4-2.3,15.5-6.4l6.5-6.4l38,37.7H15z M141.2,112.8l-38-37.7l38-37.8V112.8z"/>
	</g>
</g>
</svg>
