<?xml version="1.0" encoding="utf-8"?>
<!-- Generator: Adobe Illustrator 18.1.1, SVG Export Plug-In . SVG Version: 6.00 Build 0)  -->
<svg version="1.1" xmlns="http://www.w3.org/2000/svg" xmlns:xlink="http://www.w3.org/1999/xlink" x="0px" y="0px"
	 viewBox="0 0 150 150" enable-background="new 0 0 150 150" xml:space="preserve">
<g id="Layer_1">
	<circle fill="#C70000" cx="74.7" cy="75.3" r="70.7"/>
</g>
<g id="Layer_2" display="none">
	<g display="inline">
		<path fill="none" stroke="#FFFFFF" stroke-width="2" stroke-linecap="round" stroke-linejoin="round" stroke-miterlimit="10" d="
			M62.6,36.3C50.5,41.2,42,53,42,66.8C42,85,56.7,99.8,74.9,99.8s32.9-14.7,32.9-32.9c0-13.2-7.7-24.5-18.9-29.8"/>
		<path fill="none" stroke="#FFFFFF" stroke-width="2" stroke-linecap="round" stroke-linejoin="round" stroke-miterlimit="10" d="
			M60.1,43.2c-7.8,4.9-13,13.7-13,23.6c0,15.4,12.5,27.9,27.9,27.9s27.9-12.5,27.9-27.9c0-9.4-4.6-17.7-11.7-22.7"/>
		<path fill="none" stroke="#FFFFFF" stroke-width="2" stroke-linecap="round" stroke-linejoin="round" stroke-miterlimit="10" d="
			M91.1,44.1"/>
		<path fill="none" stroke="#FFFFFF" stroke-width="2" stroke-linecap="round" stroke-linejoin="round" stroke-miterlimit="10" d="
			M79.8,117.6H70c-0.5,0-1-0.4-1-1V99.3h11.8v17.3C80.8,117.1,80.4,117.6,79.8,117.6z"/>
		<path fill="none" stroke="#FFFFFF" stroke-width="2" stroke-linecap="round" stroke-linejoin="round" stroke-miterlimit="10" d="
			M55.6,93.5v19.6c0,0.6-0.5,1.2-1.2,1.2H33.1c-0.6,0-1.2-0.5-1.2-1.2V86.7c0-0.6,0.5-1.2,1.2-1.2h14.7"/>
		
			<polyline fill="none" stroke="#FFFFFF" stroke-width="2" stroke-linecap="round" stroke-linejoin="round" stroke-miterlimit="10" points="
			114.7,104.2 114.7,114.3 96.7,114.3 96.7,96.3 106.7,96.3 		"/>
		
			<polyline fill="none" stroke="#FFFFFF" stroke-width="2" stroke-linecap="round" stroke-linejoin="round" stroke-miterlimit="10" points="
			101.9,104.3 105.7,108.4 118,93.8 		"/>
		
			<line fill="none" stroke="#FFFFFF" stroke-width="2" stroke-linecap="round" stroke-linejoin="round" stroke-miterlimit="10" x1="80.6" y1="105.3" x2="96.7" y2="105.3"/>
		<path fill="none" stroke="#FFFFFF" stroke-width="2" stroke-linecap="round" stroke-linejoin="round" stroke-miterlimit="10" d="
			M80.6,105.3"/>
		<path fill="none" stroke="#FFFFFF" stroke-width="2" stroke-linecap="round" stroke-linejoin="round" stroke-miterlimit="10" d="
			M69,105.3"/>
		
			<line fill="none" stroke="#FFFFFF" stroke-width="2" stroke-linecap="round" stroke-linejoin="round" stroke-miterlimit="10" x1="55.8" y1="105.3" x2="69" y2="105.3"/>
		
			<line fill="none" stroke="#FFFFFF" stroke-width="2" stroke-linecap="round" stroke-linejoin="round" stroke-miterlimit="10" x1="36.7" y1="96.3" x2="50.8" y2="96.3"/>
		
			<line fill="none" stroke="#FFFFFF" stroke-width="2" stroke-linecap="round" stroke-linejoin="round" stroke-miterlimit="10" x1="36.7" y1="102.5" x2="50.8" y2="102.5"/>
		
			<line fill="none" stroke="#FFFFFF" stroke-width="2" stroke-linecap="round" stroke-linejoin="round" stroke-miterlimit="10" x1="36.7" y1="108.4" x2="50.8" y2="108.4"/>
		
			<line fill="none" stroke="#FFFFFF" stroke-width="2" stroke-linecap="round" stroke-linejoin="round" stroke-miterlimit="10" x1="43.3" y1="91.3" x2="50.8" y2="91.3"/>
		
			<line fill="none" stroke="#FFFFFF" stroke-width="2" stroke-linecap="round" stroke-linejoin="round" stroke-miterlimit="10" x1="39.3" y1="91.3" x2="36.6" y2="91.3"/>
		<path fill="none" stroke="#FFFFFF" stroke-width="2" stroke-linecap="round" stroke-linejoin="round" stroke-miterlimit="10" d="
			M85.1,46.7H80c-3.1,0-6-1.2-8.1-3.4l-0.9-0.9c-3.7,0-6.6,3-6.6,6.6v11.6c0,5,4,9,9,9h3.8c5,0,9-4,9-9V47.8
			C86.1,47.2,85.7,46.7,85.1,46.7z"/>
		<path fill="none" stroke="#FFFFFF" stroke-width="2" stroke-linecap="round" stroke-linejoin="round" stroke-miterlimit="10" d="
			M70.5,63.2h5.1c1.7,0,3.3-0.8,4.3-2.2l1.4-1.9"/>
		<path fill="none" stroke="#FFFFFF" stroke-width="2" stroke-linecap="round" stroke-linejoin="round" stroke-miterlimit="10" d="
			M85.9,52.2"/>
		<path fill="none" stroke="#FFFFFF" stroke-width="2" stroke-linecap="round" stroke-linejoin="round" stroke-miterlimit="10" d="
			M85.9,52.2h5.4v-7.7c0-7.5-6-13.5-13.5-13.5h-4.4c-7.5,0-13.5,6-13.5,13.5v7.7h4.6"/>
		<path fill="none" stroke="#FFFFFF" stroke-width="2" stroke-linecap="round" stroke-linejoin="round" stroke-miterlimit="10" d="
			M58.4,60.3h5.9V52h-5.9c-0.4,0-0.7,0.3-0.7,0.7v6.9C57.7,60,58,60.3,58.4,60.3z"/>
		<path fill="none" stroke="#FFFFFF" stroke-width="2" stroke-linecap="round" stroke-linejoin="round" stroke-miterlimit="10" d="
			M86.1,60.3H92c0.4,0,0.7-0.3,0.7-0.7v-6.9c0-0.4-0.3-0.7-0.7-0.7h-5.9V60.3z"/>
		
			<polyline fill="none" stroke="#FFFFFF" stroke-width="2" stroke-linecap="round" stroke-linejoin="round" stroke-miterlimit="10" points="
			69,69 69,72.8 74.9,77.7 80.3,72.8 80.3,69.1 		"/>
		
			<rect x="68.4" y="50.6" fill="none" stroke="#FFFFFF" stroke-width="2" stroke-linecap="round" stroke-linejoin="round" stroke-miterlimit="10" width="2.2" height="2.1"/>
		
			<rect x="79.4" y="50.6" fill="none" stroke="#FFFFFF" stroke-width="2" stroke-linecap="round" stroke-linejoin="round" stroke-miterlimit="10" width="2.2" height="2.1"/>
		
			<line fill="none" stroke="#FFFFFF" stroke-width="2" stroke-linecap="round" stroke-linejoin="round" stroke-miterlimit="10" x1="74.6" y1="50.6" x2="74.6" y2="56.9"/>
		<path fill="none" stroke="#FFFFFF" stroke-width="2" stroke-linecap="round" stroke-linejoin="round" stroke-miterlimit="10" d="
			M68.8,72.5c-6.5,2.1-11.5,7.5-13,14.2"/>
		<path fill="none" stroke="#FFFFFF" stroke-width="2" stroke-linecap="round" stroke-linejoin="round" stroke-miterlimit="10" d="
			M93.6,87.5c-1.3-7.1-6.4-12.9-13.2-15"/>
		
			<polyline fill="none" stroke="#FFFFFF" stroke-width="2" stroke-linecap="round" stroke-linejoin="round" stroke-miterlimit="10" points="
			65.7,73.8 68.2,81.8 73.5,76.5 74.9,77.7 76.3,76.4 82.1,81.8 83.7,73.9 		"/>
		
			<polyline fill="none" stroke="#FFFFFF" stroke-width="2" stroke-linecap="round" stroke-linejoin="round" stroke-miterlimit="10" points="
			71.2,94.5 73.5,76.5 74.9,77.7 76.3,76.4 79.2,94.4 		"/>
	</g>
</g>
<g id="Layer_3" display="none">
	<g display="inline">
		<path fill="none" stroke="#FFFFFF" stroke-width="2" stroke-linecap="round" stroke-linejoin="round" stroke-miterlimit="10" d="
			M89.6,40.4c8.4,3.7,17.5,10.9,27,23c0,0-38.4,56.4-82.9,0c0,0,10.9-17.9,28.5-24.2"/>
		<path fill="none" stroke="#FFFFFF" stroke-width="2" stroke-linecap="round" stroke-linejoin="round" stroke-miterlimit="10" d="
			M61.7,40.7c-7.4,4.5-12.4,12.7-12.4,22c0,14.2,11.5,25.8,25.8,25.8s25.8-11.5,25.8-25.8c0-8.8-4.4-16.5-11.1-21.2"/>
		<path fill="none" stroke="#FFFFFF" stroke-width="2" stroke-linecap="round" stroke-linejoin="round" stroke-miterlimit="10" d="
			M50.6,119.5H33.2c-0.2,0-0.4-0.2-0.4-0.4V95.9c0-0.3,0.2-0.5,0.5-0.5h17.3c0.3,0,0.5,0.2,0.5,0.5v23.2
			C51,119.4,50.8,119.5,50.6,119.5z"/>
		
			<line fill="none" stroke="#FFFFFF" stroke-width="2" stroke-linecap="round" stroke-linejoin="round" stroke-miterlimit="10" x1="37.4" y1="101.1" x2="46.4" y2="101.1"/>
		
			<line fill="none" stroke="#FFFFFF" stroke-width="2" stroke-linecap="round" stroke-linejoin="round" stroke-miterlimit="10" x1="37.4" y1="106.4" x2="46.4" y2="106.4"/>
		
			<line fill="none" stroke="#FFFFFF" stroke-width="2" stroke-linecap="round" stroke-linejoin="round" stroke-miterlimit="10" x1="37.4" y1="112.5" x2="46.4" y2="112.5"/>
		<path fill="none" stroke="#FFFFFF" stroke-width="2" stroke-linecap="round" stroke-linejoin="round" stroke-miterlimit="10" d="
			M83.8,119.5H66.4c-0.2,0-0.4-0.2-0.4-0.4V95.9c0-0.3,0.2-0.5,0.5-0.5h17.3c0.3,0,0.5,0.2,0.5,0.5v23.2
			C84.2,119.4,84,119.5,83.8,119.5z"/>
		<path fill="none" stroke="#FFFFFF" stroke-width="2" stroke-linecap="round" stroke-linejoin="round" stroke-miterlimit="10" d="
			M116.1,119.5H98.7c-0.2,0-0.4-0.2-0.4-0.4V95.9c0-0.3,0.2-0.5,0.5-0.5h17.3c0.3,0,0.5,0.2,0.5,0.5v23.2
			C116.5,119.4,116.3,119.5,116.1,119.5z"/>
		
			<line fill="none" stroke="#FFFFFF" stroke-width="2" stroke-linecap="round" stroke-linejoin="round" stroke-miterlimit="10" x1="70.6" y1="101.1" x2="79.6" y2="101.1"/>
		
			<line fill="none" stroke="#FFFFFF" stroke-width="2" stroke-linecap="round" stroke-linejoin="round" stroke-miterlimit="10" x1="70.6" y1="106.4" x2="79.6" y2="106.4"/>
		
			<line fill="none" stroke="#FFFFFF" stroke-width="2" stroke-linecap="round" stroke-linejoin="round" stroke-miterlimit="10" x1="70.6" y1="112.5" x2="79.6" y2="112.5"/>
		
			<polyline fill="none" stroke="#FFFFFF" stroke-width="2" stroke-linecap="round" stroke-linejoin="round" stroke-miterlimit="10" points="
			102.9,108.6 106,111.4 111.6,103.6 		"/>
		
			<line fill="none" stroke="#FFFFFF" stroke-width="2" stroke-linecap="round" stroke-linejoin="round" stroke-miterlimit="10" x1="54.8" y1="82.7" x2="43.3" y2="95.5"/>
		
			<line fill="none" stroke="#FFFFFF" stroke-width="2" stroke-linecap="round" stroke-linejoin="round" stroke-miterlimit="10" x1="95.2" y1="82.7" x2="107.4" y2="95.7"/>
		
			<line fill="none" stroke="#FFFFFF" stroke-width="2" stroke-linecap="round" stroke-linejoin="round" stroke-miterlimit="10" x1="75.1" y1="88.5" x2="75.1" y2="95.5"/>
		<path fill="none" stroke="#FFFFFF" stroke-width="2" stroke-linecap="round" stroke-linejoin="round" stroke-miterlimit="10" d="
			M84.2,45.4h-4.6c-2.8,0-5.4-1.1-7.3-3l-0.9-0.9c-3.3,0-6,2.7-6,6v10.5c0,4.5,3.7,8.2,8.2,8.2H77c4.5,0,8.2-3.7,8.2-8.2V46.4
			C85.1,45.8,84.7,45.4,84.2,45.4z"/>
		<path fill="none" stroke="#FFFFFF" stroke-width="2" stroke-linecap="round" stroke-linejoin="round" stroke-miterlimit="10" d="
			M71.1,60.3h4.6c1.5,0,3-0.7,3.9-2l1.2-1.7"/>
		<path fill="none" stroke="#FFFFFF" stroke-width="2" stroke-linecap="round" stroke-linejoin="round" stroke-miterlimit="10" d="
			M84.9,50.3"/>
		<path fill="none" stroke="#FFFFFF" stroke-width="2" stroke-linecap="round" stroke-linejoin="round" stroke-miterlimit="10" d="
			M84.9,50.3h4.8v-7c0-6.7-5.4-12.2-12.2-12.2h-4c-6.7,0-12.2,5.4-12.2,12.2v7h4.1"/>
		<path fill="none" stroke="#FFFFFF" stroke-width="2" stroke-linecap="round" stroke-linejoin="round" stroke-miterlimit="10" d="
			M60.1,57.7h5.3v-7.5h-5.3c-0.3,0-0.6,0.3-0.6,0.6v6.3C59.5,57.4,59.8,57.7,60.1,57.7z"/>
		<path fill="none" stroke="#FFFFFF" stroke-width="2" stroke-linecap="round" stroke-linejoin="round" stroke-miterlimit="10" d="
			M85.1,57.7h5.3c0.3,0,0.6-0.3,0.6-0.6v-6.3c0-0.3-0.3-0.6-0.6-0.6h-5.3V57.7z"/>
		
			<polyline fill="none" stroke="#FFFFFF" stroke-width="2" stroke-linecap="round" stroke-linejoin="round" stroke-miterlimit="10" points="
			69.7,65.5 69.7,68.9 75,73.4 79.9,68.9 79.9,65.6 		"/>
		
			<rect x="69.1" y="48.9" fill="none" stroke="#FFFFFF" stroke-width="2" stroke-linecap="round" stroke-linejoin="round" stroke-miterlimit="10" width="2" height="1.9"/>
		
			<rect x="79" y="48.9" fill="none" stroke="#FFFFFF" stroke-width="2" stroke-linecap="round" stroke-linejoin="round" stroke-miterlimit="10" width="2" height="1.9"/>
		
			<line fill="none" stroke="#FFFFFF" stroke-width="2" stroke-linecap="round" stroke-linejoin="round" stroke-miterlimit="10" x1="74.8" y1="48.9" x2="74.8" y2="54.5"/>
		<path fill="none" stroke="#FFFFFF" stroke-width="2" stroke-linecap="round" stroke-linejoin="round" stroke-miterlimit="10" d="
			M69.5,68.6c-5.9,1.9-10.4,6.7-11.8,12.8"/>
		<path fill="none" stroke="#FFFFFF" stroke-width="2" stroke-linecap="round" stroke-linejoin="round" stroke-miterlimit="10" d="
			M91.9,82.1c-1.2-6.4-5.8-11.6-11.9-13.5"/>
		
			<polyline fill="none" stroke="#FFFFFF" stroke-width="2" stroke-linecap="round" stroke-linejoin="round" stroke-miterlimit="10" points="
			66.7,69.8 69,77 73.7,72.3 75,73.4 76.3,72.2 81.5,77 83,69.9 		"/>
		
			<polyline fill="none" stroke="#FFFFFF" stroke-width="2" stroke-linecap="round" stroke-linejoin="round" stroke-miterlimit="10" points="
			71.7,88.5 73.7,72.3 75,73.4 76.3,72.2 78.8,88.4 		"/>
	</g>
</g>
<g id="Layer_4" display="none">
	<g display="inline">
		
			<polyline fill="none" stroke="#FFFFFF" stroke-width="2" stroke-linecap="round" stroke-linejoin="round" stroke-miterlimit="10" points="
			57.5,93.5 30.8,93.5 30.8,35.3 104.7,35.3 104.7,49 		"/>
		
			<rect x="35.5" y="40" fill="none" stroke="#FFFFFF" stroke-width="2" stroke-linecap="round" stroke-linejoin="round" stroke-miterlimit="10" width="3.1" height="3.1"/>
		
			<rect x="41.4" y="40" fill="none" stroke="#FFFFFF" stroke-width="2" stroke-linecap="round" stroke-linejoin="round" stroke-miterlimit="10" width="3.1" height="3.1"/>
		
			<rect x="47.4" y="40" fill="none" stroke="#FFFFFF" stroke-width="2" stroke-linecap="round" stroke-linejoin="round" stroke-miterlimit="10" width="3.1" height="3.1"/>
		
			<line fill="none" stroke="#FFFFFF" stroke-width="2" stroke-linecap="round" stroke-linejoin="round" stroke-miterlimit="10" x1="30.8" y1="47" x2="104.7" y2="47"/>
		<g>
			
				<circle fill="none" stroke="#FFFFFF" stroke-width="2" stroke-linecap="round" stroke-linejoin="round" stroke-miterlimit="10" cx="85.4" cy="64.9" r="9"/>
			<path fill="none" stroke="#FFFFFF" stroke-width="2" stroke-linecap="round" stroke-linejoin="round" stroke-miterlimit="10" d="
				M84.6,73.9h2c6.5,0,11.7,5.2,11.7,11.7V96c0,2-1.6,3.6-3.6,3.6H93V85.3v36c0,2-1.6,3.7-3.7,3.7h0c-2,0-3.7-1.6-3.7-3.7V96v25.3
				c0,2-1.6,3.7-3.7,3.7h-0.7c-2,0-3.7-1.6-3.7-3.7v-36v14.4h-1c-2,0-3.6-1.6-3.6-3.6V85.6C72.9,79.1,78.2,73.9,84.6,73.9z"/>
		</g>
		<g>
			
				<circle fill="none" stroke="#FFFFFF" stroke-width="2" stroke-linecap="round" stroke-linejoin="round" stroke-miterlimit="10" cx="106.2" cy="57.8" r="9"/>
			<path fill="none" stroke="#FFFFFF" stroke-width="2" stroke-linecap="round" stroke-linejoin="round" stroke-miterlimit="10" d="
				M93.9,76.4c1-5.5,5.8-9.6,11.5-9.6h2c6.5,0,11.7,5.2,11.7,11.7v10.4c0,2-1.6,3.6-3.6,3.6h-1.8V78.2v36c0,2-1.6,3.7-3.7,3.7h0
				c-2,0-3.7-1.6-3.7-3.7V88.9v25.3c0,2-1.6,3.7-3.7,3.7H102c-2,0-3.7-1.6-3.7-3.7v-36v14.4"/>
		</g>
		<g>
			
				<circle fill="none" stroke="#FFFFFF" stroke-width="2" stroke-linecap="round" stroke-linejoin="round" stroke-miterlimit="10" cx="65.4" cy="57.8" r="9"/>
			<path fill="none" stroke="#FFFFFF" stroke-width="2" stroke-linecap="round" stroke-linejoin="round" stroke-miterlimit="10" d="
				M73,92.6V78.2v36c0,2-1.6,3.7-3.7,3.7h0c-2,0-3.7-1.6-3.7-3.7V88.9v25.3c0,2-1.6,3.7-3.7,3.7h-0.7c-2,0-3.7-1.6-3.7-3.7v-36v14.4
				h-1c-2,0-3.6-1.6-3.6-3.6V78.5c0-6.5,5.2-11.7,11.7-11.7h2c5.6,0,10.3,3.9,11.4,9.2"/>
		</g>
		
			<line fill="none" stroke="#FFFFFF" stroke-width="2" stroke-linecap="round" stroke-linejoin="round" stroke-miterlimit="10" x1="35.5" y1="59.1" x2="50.5" y2="59.1"/>
		
			<line fill="none" stroke="#FFFFFF" stroke-width="2" stroke-linecap="round" stroke-linejoin="round" stroke-miterlimit="10" x1="35.5" y1="65.1" x2="50.5" y2="65.1"/>
		
			<line fill="none" stroke="#FFFFFF" stroke-width="2" stroke-linecap="round" stroke-linejoin="round" stroke-miterlimit="10" x1="35.5" y1="70.5" x2="50.5" y2="70.5"/>
		
			<line fill="none" stroke="#FFFFFF" stroke-width="2" stroke-linecap="round" stroke-linejoin="round" stroke-miterlimit="10" x1="35.5" y1="76.4" x2="47.4" y2="76.4"/>
		
			<line fill="none" stroke="#FFFFFF" stroke-width="2" stroke-linecap="round" stroke-linejoin="round" stroke-miterlimit="10" x1="35.5" y1="82.2" x2="47.4" y2="82.2"/>
		
			<line fill="none" stroke="#FFFFFF" stroke-width="2" stroke-linecap="round" stroke-linejoin="round" stroke-miterlimit="10" x1="35.5" y1="87.8" x2="47.4" y2="87.8"/>
		
			<rect x="35.5" y="51.5" fill="none" stroke="#FFFFFF" stroke-width="2" stroke-linecap="round" stroke-linejoin="round" stroke-miterlimit="10" width="3.1" height="3.1"/>
		
			<rect x="41.4" y="51.5" fill="none" stroke="#FFFFFF" stroke-width="2" stroke-linecap="round" stroke-linejoin="round" stroke-miterlimit="10" width="3.1" height="3.1"/>
		
			<rect x="47.4" y="51.5" fill="none" stroke="#FFFFFF" stroke-width="2" stroke-linecap="round" stroke-linejoin="round" stroke-miterlimit="10" width="3.1" height="3.1"/>
	</g>
</g>
<g id="Layer_5">
	<g>
		
			<circle fill="none" stroke="#FFFFFF" stroke-width="2" stroke-linecap="round" stroke-linejoin="round" stroke-miterlimit="10" cx="55.7" cy="72.2" r="17.7"/>
		
			<line fill="none" stroke="#FFFFFF" stroke-width="2" stroke-linecap="round" stroke-linejoin="round" stroke-miterlimit="10" x1="55.7" y1="54.5" x2="55.7" y2="72.2"/>
		
			<polyline fill="none" stroke="#FFFFFF" stroke-width="2" stroke-linecap="round" stroke-linejoin="round" stroke-miterlimit="10" points="
			55.7,72.2 40.9,82.1 40.9,110.8 112.6,110.8 112.6,83.5 		"/>
		
			<line fill="none" stroke="#FFFFFF" stroke-width="2" stroke-linecap="round" stroke-linejoin="round" stroke-miterlimit="10" x1="70.4" y1="82.1" x2="55.7" y2="72.2"/>
		
			<polyline fill="none" stroke="#FFFFFF" stroke-width="2" stroke-linecap="round" stroke-linejoin="round" stroke-miterlimit="10" points="
			82.5,40.4 40.9,40.4 40.9,62.3 		"/>
		
			<line fill="none" stroke="#FFFFFF" stroke-width="2" stroke-linecap="round" stroke-linejoin="round" stroke-miterlimit="10" x1="40.9" y1="50.1" x2="81.8" y2="50.1"/>
		
			<rect x="44.4" y="43.8" fill="none" stroke="#FFFFFF" stroke-width="2" stroke-linecap="round" stroke-linejoin="round" stroke-miterlimit="10" width="2.3" height="2.3"/>
		
			<rect x="49.5" y="43.8" fill="none" stroke="#FFFFFF" stroke-width="2" stroke-linecap="round" stroke-linejoin="round" stroke-miterlimit="10" width="2.3" height="2.3"/>
		
			<rect x="54.5" y="43.8" fill="none" stroke="#FFFFFF" stroke-width="2" stroke-linecap="round" stroke-linejoin="round" stroke-miterlimit="10" width="2.3" height="2.3"/>
		
			<line fill="none" stroke="#FFFFFF" stroke-width="2" stroke-linecap="round" stroke-linejoin="round" stroke-miterlimit="10" x1="46.7" y1="95.4" x2="49.5" y2="95.4"/>
		
			<line fill="none" stroke="#FFFFFF" stroke-width="2" stroke-linecap="round" stroke-linejoin="round" stroke-miterlimit="10" x1="52.4" y1="95.4" x2="59.6" y2="95.4"/>
		
			<line fill="none" stroke="#FFFFFF" stroke-width="2" stroke-linecap="round" stroke-linejoin="round" stroke-miterlimit="10" x1="62.2" y1="95.4" x2="69.8" y2="95.4"/>
		
			<line fill="none" stroke="#FFFFFF" stroke-width="2" stroke-linecap="round" stroke-linejoin="round" stroke-miterlimit="10" x1="46.7" y1="100.1" x2="49.5" y2="100.1"/>
		
			<line fill="none" stroke="#FFFFFF" stroke-width="2" stroke-linecap="round" stroke-linejoin="round" stroke-miterlimit="10" x1="52.4" y1="100.1" x2="76.8" y2="100.1"/>
		
			<line fill="none" stroke="#FFFFFF" stroke-width="2" stroke-linecap="round" stroke-linejoin="round" stroke-miterlimit="10" x1="46.7" y1="105.3" x2="49.5" y2="105.3"/>
		
			<line fill="none" stroke="#FFFFFF" stroke-width="2" stroke-linecap="round" stroke-linejoin="round" stroke-miterlimit="10" x1="52.4" y1="105.3" x2="71.6" y2="105.3"/>
		
			<rect x="84.5" y="89.9" fill="none" stroke="#FFFFFF" stroke-width="2" stroke-linecap="round" stroke-linejoin="round" stroke-miterlimit="10" width="21" height="5.1"/>
		
			<rect x="84.5" y="99.7" fill="none" stroke="#FFFFFF" stroke-width="2" stroke-linecap="round" stroke-linejoin="round" stroke-miterlimit="10" width="21" height="5.1"/>
		
			<line fill="none" stroke="#FFFFFF" stroke-width="2" stroke-linecap="round" stroke-linejoin="round" stroke-miterlimit="10" x1="95" y1="85.1" x2="95" y2="89.9"/>
		<path fill="none" stroke="#FFFFFF" stroke-width="2" stroke-linecap="round" stroke-linejoin="round" stroke-miterlimit="10" d="
			M104.8,46h-4.6c-2.8,0-5.4-1.1-7.4-3.1l-0.9-0.9c-3.3,0-6,2.7-6,6v10.6c0,4.5,3.7,8.2,8.2,8.2h3.4c4.5,0,8.2-3.7,8.2-8.2V47
			C105.8,46.5,105.3,46,104.8,46z"/>
		<path fill="none" stroke="#FFFFFF" stroke-width="2" stroke-linecap="round" stroke-linejoin="round" stroke-miterlimit="10" d="
			M91.6,61h4.7c1.5,0,3-0.7,3.9-2l1.3-1.7"/>
		<path fill="none" stroke="#FFFFFF" stroke-width="2" stroke-linecap="round" stroke-linejoin="round" stroke-miterlimit="10" d="
			M105.5,51"/>
		<path fill="none" stroke="#FFFFFF" stroke-width="2" stroke-linecap="round" stroke-linejoin="round" stroke-miterlimit="10" d="
			M105.5,51h4.9v-7c0-6.8-5.5-12.3-12.3-12.3h-4c-6.8,0-12.3,5.5-12.3,12.3v7H86"/>
		<path fill="none" stroke="#FFFFFF" stroke-width="2" stroke-linecap="round" stroke-linejoin="round" stroke-miterlimit="10" d="
			M80.5,58.4h5.4v-7.5h-5.4c-0.3,0-0.6,0.3-0.6,0.6v6.3C79.9,58.1,80.2,58.4,80.5,58.4z"/>
		<path fill="none" stroke="#FFFFFF" stroke-width="2" stroke-linecap="round" stroke-linejoin="round" stroke-miterlimit="10" d="
			M105.8,58.4h5.4c0.3,0,0.6-0.3,0.6-0.6l0-6.3c0-0.3-0.3-0.6-0.6-0.6h-5.4V58.4z"/>
		
			<polyline fill="none" stroke="#FFFFFF" stroke-width="2" stroke-linecap="round" stroke-linejoin="round" stroke-miterlimit="10" points="
			90.2,66.3 90.2,69.7 95.5,74.2 100.4,69.7 100.4,66.4 		"/>
		
			<rect x="89.6" y="49.6" fill="none" stroke="#FFFFFF" stroke-width="2" stroke-linecap="round" stroke-linejoin="round" stroke-miterlimit="10" width="2" height="1.9"/>
		
			<rect x="99.6" y="49.6" fill="none" stroke="#FFFFFF" stroke-width="2" stroke-linecap="round" stroke-linejoin="round" stroke-miterlimit="10" width="2" height="1.9"/>
		
			<line fill="none" stroke="#FFFFFF" stroke-width="2" stroke-linecap="round" stroke-linejoin="round" stroke-miterlimit="10" x1="95.3" y1="49.6" x2="95.3" y2="55.2"/>
		<path fill="none" stroke="#FFFFFF" stroke-width="2" stroke-linecap="round" stroke-linejoin="round" stroke-miterlimit="10" d="
			M90,69.5c-5.9,1.9-10.5,6.8-11.9,12.9h34.3"/>
		<path fill="none" stroke="#FFFFFF" stroke-width="2" stroke-linecap="round" stroke-linejoin="round" stroke-miterlimit="10" d="
			M112.6,83.1c-1.2-6.5-5.9-11.7-12-13.6"/>
		
			<polyline fill="none" stroke="#FFFFFF" stroke-width="2" stroke-linecap="round" stroke-linejoin="round" stroke-miterlimit="10" points="
			87.2,70.7 89.5,77.9 94.2,73.2 95.5,74.2 96.8,73.1 102.1,77.9 103.6,70.7 		"/>
		
			<polyline fill="none" stroke="#FFFFFF" stroke-width="2" stroke-linecap="round" stroke-linejoin="round" stroke-miterlimit="10" points="
			92.2,82.6 94.2,73.1 95.5,73.8 96.8,73.1 99.4,82.6 		"/>
	</g>
</g>
</svg>
