<?xml version="1.0" encoding="utf-8"?>
<!-- Generator: Adobe Illustrator 18.1.1, SVG Export Plug-In . SVG Version: 6.00 Build 0)  -->
<svg version="1.1" id="Capa_1" xmlns="http://www.w3.org/2000/svg" xmlns:xlink="http://www.w3.org/1999/xlink" x="0px" y="0px"
	 viewBox="0 0 150 150" enable-background="new 0 0 150 150" xml:space="preserve">
<g>
	<g>
		<path fill="#C70000" d="M118.5,92.9c-3.1-3.2-6.8-4.9-10.7-4.9c-3.9,0-7.6,1.7-10.8,4.9l-10,10c-0.8-0.4-1.6-0.9-2.4-1.3
			c-1.1-0.6-2.2-1.1-3.1-1.7c-9.4-6-17.9-13.7-26.1-23.7c-4-5-6.6-9.2-8.5-13.5c2.6-2.4,5-4.8,7.3-7.2c0.9-0.9,1.8-1.8,2.7-2.7
			c6.6-6.6,6.6-15.3,0-21.9l-8.6-8.6c-1-1-2-2-2.9-3c-1.9-2-3.9-4-6-5.9c-3.1-3-6.7-4.7-10.6-4.7s-7.6,1.6-10.8,4.7c0,0,0,0-0.1,0.1
			L7.1,24.3c-4.1,4.1-6.4,9-6.9,14.7c-0.8,9.2,2,17.9,4.1,23.5c5.1,13.8,12.8,26.7,24.2,40.4c13.9,16.6,30.6,29.6,49.6,38.8
			c7.3,3.5,17,7.5,27.9,8.2c0.7,0,1.4,0.1,2,0.1c7.3,0,13.5-2.6,18.3-7.9c0-0.1,0.1-0.1,0.1-0.2c1.6-2,3.5-3.8,5.5-5.7
			c1.4-1.3,2.8-2.7,4.1-4.1c3.1-3.3,4.8-7.1,4.8-11c0-3.9-1.7-7.7-4.9-10.9L118.5,92.9z M129.9,126.3
			C129.8,126.3,129.8,126.3,129.9,126.3c-1.2,1.3-2.5,2.5-3.9,3.9c-2.1,2-4.1,4-6.1,6.3c-3.2,3.4-7,5-11.9,5c-0.5,0-1,0-1.5,0
			c-9.4-0.6-18.1-4.3-24.7-7.4c-17.9-8.7-33.7-21-46.7-36.6c-10.8-13-18-25-22.8-38c-2.9-7.9-4-14-3.5-19.8c0.3-3.7,1.7-6.8,4.4-9.4
			L24,19.5c1.6-1.5,3.2-2.2,4.8-2.2c2,0,3.6,1.2,4.6,2.2c0,0,0.1,0.1,0.1,0.1c1.9,1.8,3.8,3.7,5.7,5.7c1,1,2,2,3,3.1l8.6,8.6
			c3.4,3.4,3.4,6.5,0,9.8c-0.9,0.9-1.8,1.8-2.7,2.7c-2.7,2.7-5.2,5.3-7.9,7.7c-0.1,0.1-0.1,0.1-0.2,0.2c-2.7,2.7-2.2,5.4-1.6,7.2
			c0,0.1,0.1,0.2,0.1,0.3c2.2,5.4,5.4,10.6,10.2,16.7l0,0c8.7,10.8,18,19.2,28.1,25.6c1.3,0.8,2.6,1.5,3.9,2.1
			c1.1,0.6,2.2,1.1,3.1,1.7c0.1,0.1,0.3,0.2,0.4,0.2c1.1,0.5,2.1,0.8,3.1,0.8c2.6,0,4.3-1.6,4.8-2.2L103,98.9
			c1.1-1.1,2.8-2.4,4.8-2.4c2,0,3.6,1.2,4.6,2.3c0,0,0,0,0.1,0.1l17.4,17.4C133.1,119.6,133.1,122.9,129.9,126.3z"/>
		<path fill="#C70000" d="M81.1,35.7c8.3,1.4,15.8,5.3,21.8,11.3s9.9,13.5,11.3,21.8c0.3,2.1,2.2,3.5,4.2,3.5c0.3,0,0.5,0,0.7-0.1
			c2.3-0.4,3.9-2.6,3.5-4.9c-1.7-10-6.5-19.2-13.7-26.4S92.6,29,82.6,27.3c-2.3-0.4-4.5,1.2-4.9,3.5S78.7,35.3,81.1,35.7z"/>
		<path fill="#C70000" d="M149.8,66.2c-2.8-16.5-10.6-31.6-22.6-43.5s-27-19.8-43.5-22.6c-2.3-0.4-4.5,1.2-4.9,3.5
			c-0.4,2.3,1.2,4.5,3.5,4.9c14.8,2.5,28.2,9.5,38.9,20.2c10.7,10.7,17.7,24.2,20.2,38.9c0.3,2.1,2.2,3.5,4.2,3.5
			c0.3,0,0.5,0,0.7-0.1C148.7,70.7,150.2,68.5,149.8,66.2z"/>
	</g>
</g>
</svg>
