<?xml version="1.0" encoding="utf-8"?>
<!-- Generator: Adobe Illustrator 18.1.1, SVG Export Plug-In . SVG Version: 6.00 Build 0)  -->
<svg version="1.1" xmlns="http://www.w3.org/2000/svg" xmlns:xlink="http://www.w3.org/1999/xlink" x="0px" y="0px"
	 viewBox="0 0 150 150" enable-background="new 0 0 150 150" xml:space="preserve">
<g id="Layer_1">
	<circle fill="#C70000" cx="74.7" cy="75.3" r="70.7"/>
</g>
<g id="Layer_2" display="none">
	<g display="inline">
		<path fill="none" stroke="#FFFFFF" stroke-width="2" stroke-linecap="round" stroke-linejoin="round" stroke-miterlimit="10" d="
			M62.6,36.3C50.5,41.2,42,53,42,66.8C42,85,56.7,99.8,74.9,99.8s32.9-14.7,32.9-32.9c0-13.2-7.7-24.5-18.9-29.8"/>
		<path fill="none" stroke="#FFFFFF" stroke-width="2" stroke-linecap="round" stroke-linejoin="round" stroke-miterlimit="10" d="
			M60.1,43.2c-7.8,4.9-13,13.7-13,23.6c0,15.4,12.5,27.9,27.9,27.9s27.9-12.5,27.9-27.9c0-9.4-4.6-17.7-11.7-22.7"/>
		<path fill="none" stroke="#FFFFFF" stroke-width="2" stroke-linecap="round" stroke-linejoin="round" stroke-miterlimit="10" d="
			M91.1,44.1"/>
		<path fill="none" stroke="#FFFFFF" stroke-width="2" stroke-linecap="round" stroke-linejoin="round" stroke-miterlimit="10" d="
			M79.8,117.6H70c-0.5,0-1-0.4-1-1V99.3h11.8v17.3C80.8,117.1,80.4,117.6,79.8,117.6z"/>
		<path fill="none" stroke="#FFFFFF" stroke-width="2" stroke-linecap="round" stroke-linejoin="round" stroke-miterlimit="10" d="
			M55.6,93.5v19.6c0,0.6-0.5,1.2-1.2,1.2H33.1c-0.6,0-1.2-0.5-1.2-1.2V86.7c0-0.6,0.5-1.2,1.2-1.2h14.7"/>
		
			<polyline fill="none" stroke="#FFFFFF" stroke-width="2" stroke-linecap="round" stroke-linejoin="round" stroke-miterlimit="10" points="
			114.7,104.2 114.7,114.3 96.7,114.3 96.7,96.3 106.7,96.3 		"/>
		
			<polyline fill="none" stroke="#FFFFFF" stroke-width="2" stroke-linecap="round" stroke-linejoin="round" stroke-miterlimit="10" points="
			101.9,104.3 105.7,108.4 118,93.8 		"/>
		
			<line fill="none" stroke="#FFFFFF" stroke-width="2" stroke-linecap="round" stroke-linejoin="round" stroke-miterlimit="10" x1="80.6" y1="105.3" x2="96.7" y2="105.3"/>
		<path fill="none" stroke="#FFFFFF" stroke-width="2" stroke-linecap="round" stroke-linejoin="round" stroke-miterlimit="10" d="
			M80.6,105.3"/>
		<path fill="none" stroke="#FFFFFF" stroke-width="2" stroke-linecap="round" stroke-linejoin="round" stroke-miterlimit="10" d="
			M69,105.3"/>
		
			<line fill="none" stroke="#FFFFFF" stroke-width="2" stroke-linecap="round" stroke-linejoin="round" stroke-miterlimit="10" x1="55.8" y1="105.3" x2="69" y2="105.3"/>
		
			<line fill="none" stroke="#FFFFFF" stroke-width="2" stroke-linecap="round" stroke-linejoin="round" stroke-miterlimit="10" x1="36.7" y1="96.3" x2="50.8" y2="96.3"/>
		
			<line fill="none" stroke="#FFFFFF" stroke-width="2" stroke-linecap="round" stroke-linejoin="round" stroke-miterlimit="10" x1="36.7" y1="102.5" x2="50.8" y2="102.5"/>
		
			<line fill="none" stroke="#FFFFFF" stroke-width="2" stroke-linecap="round" stroke-linejoin="round" stroke-miterlimit="10" x1="36.7" y1="108.4" x2="50.8" y2="108.4"/>
		
			<line fill="none" stroke="#FFFFFF" stroke-width="2" stroke-linecap="round" stroke-linejoin="round" stroke-miterlimit="10" x1="43.3" y1="91.3" x2="50.8" y2="91.3"/>
		
			<line fill="none" stroke="#FFFFFF" stroke-width="2" stroke-linecap="round" stroke-linejoin="round" stroke-miterlimit="10" x1="39.3" y1="91.3" x2="36.6" y2="91.3"/>
		<path fill="none" stroke="#FFFFFF" stroke-width="2" stroke-linecap="round" stroke-linejoin="round" stroke-miterlimit="10" d="
			M85.1,46.7H80c-3.1,0-6-1.2-8.1-3.4l-0.9-0.9c-3.7,0-6.6,3-6.6,6.6v11.6c0,5,4,9,9,9h3.8c5,0,9-4,9-9V47.8
			C86.1,47.2,85.7,46.7,85.1,46.7z"/>
		<path fill="none" stroke="#FFFFFF" stroke-width="2" stroke-linecap="round" stroke-linejoin="round" stroke-miterlimit="10" d="
			M70.5,63.2h5.1c1.7,0,3.3-0.8,4.3-2.2l1.4-1.9"/>
		<path fill="none" stroke="#FFFFFF" stroke-width="2" stroke-linecap="round" stroke-linejoin="round" stroke-miterlimit="10" d="
			M85.9,52.2"/>
		<path fill="none" stroke="#FFFFFF" stroke-width="2" stroke-linecap="round" stroke-linejoin="round" stroke-miterlimit="10" d="
			M85.9,52.2h5.4v-7.7c0-7.5-6-13.5-13.5-13.5h-4.4c-7.5,0-13.5,6-13.5,13.5v7.7h4.6"/>
		<path fill="none" stroke="#FFFFFF" stroke-width="2" stroke-linecap="round" stroke-linejoin="round" stroke-miterlimit="10" d="
			M58.4,60.3h5.9V52h-5.9c-0.4,0-0.7,0.3-0.7,0.7v6.9C57.7,60,58,60.3,58.4,60.3z"/>
		<path fill="none" stroke="#FFFFFF" stroke-width="2" stroke-linecap="round" stroke-linejoin="round" stroke-miterlimit="10" d="
			M86.1,60.3H92c0.4,0,0.7-0.3,0.7-0.7v-6.9c0-0.4-0.3-0.7-0.7-0.7h-5.9V60.3z"/>
		
			<polyline fill="none" stroke="#FFFFFF" stroke-width="2" stroke-linecap="round" stroke-linejoin="round" stroke-miterlimit="10" points="
			69,69 69,72.8 74.9,77.7 80.3,72.8 80.3,69.1 		"/>
		
			<rect x="68.4" y="50.6" fill="none" stroke="#FFFFFF" stroke-width="2" stroke-linecap="round" stroke-linejoin="round" stroke-miterlimit="10" width="2.2" height="2.1"/>
		
			<rect x="79.4" y="50.6" fill="none" stroke="#FFFFFF" stroke-width="2" stroke-linecap="round" stroke-linejoin="round" stroke-miterlimit="10" width="2.2" height="2.1"/>
		
			<line fill="none" stroke="#FFFFFF" stroke-width="2" stroke-linecap="round" stroke-linejoin="round" stroke-miterlimit="10" x1="74.6" y1="50.6" x2="74.6" y2="56.9"/>
		<path fill="none" stroke="#FFFFFF" stroke-width="2" stroke-linecap="round" stroke-linejoin="round" stroke-miterlimit="10" d="
			M68.8,72.5c-6.5,2.1-11.5,7.5-13,14.2"/>
		<path fill="none" stroke="#FFFFFF" stroke-width="2" stroke-linecap="round" stroke-linejoin="round" stroke-miterlimit="10" d="
			M93.6,87.5c-1.3-7.1-6.4-12.9-13.2-15"/>
		
			<polyline fill="none" stroke="#FFFFFF" stroke-width="2" stroke-linecap="round" stroke-linejoin="round" stroke-miterlimit="10" points="
			65.7,73.8 68.2,81.8 73.5,76.5 74.9,77.7 76.3,76.4 82.1,81.8 83.7,73.9 		"/>
		
			<polyline fill="none" stroke="#FFFFFF" stroke-width="2" stroke-linecap="round" stroke-linejoin="round" stroke-miterlimit="10" points="
			71.2,94.5 73.5,76.5 74.9,77.7 76.3,76.4 79.2,94.4 		"/>
	</g>
</g>
<g id="Layer_3">
	<g>
		<path fill="none" stroke="#FFFFFF" stroke-width="2" stroke-linecap="round" stroke-linejoin="round" stroke-miterlimit="10" d="
			M89.6,40.4c8.4,3.7,17.5,10.9,27,23c0,0-38.4,56.4-82.9,0c0,0,10.9-17.9,28.5-24.2"/>
		<path fill="none" stroke="#FFFFFF" stroke-width="2" stroke-linecap="round" stroke-linejoin="round" stroke-miterlimit="10" d="
			M61.7,40.7c-7.4,4.5-12.4,12.7-12.4,22c0,14.2,11.5,25.8,25.8,25.8s25.8-11.5,25.8-25.8c0-8.8-4.4-16.5-11.1-21.2"/>
		<path fill="none" stroke="#FFFFFF" stroke-width="2" stroke-linecap="round" stroke-linejoin="round" stroke-miterlimit="10" d="
			M50.6,119.5H33.2c-0.2,0-0.4-0.2-0.4-0.4V95.9c0-0.3,0.2-0.5,0.5-0.5h17.3c0.3,0,0.5,0.2,0.5,0.5v23.2
			C51,119.4,50.8,119.5,50.6,119.5z"/>
		
			<line fill="none" stroke="#FFFFFF" stroke-width="2" stroke-linecap="round" stroke-linejoin="round" stroke-miterlimit="10" x1="37.4" y1="101.1" x2="46.4" y2="101.1"/>
		
			<line fill="none" stroke="#FFFFFF" stroke-width="2" stroke-linecap="round" stroke-linejoin="round" stroke-miterlimit="10" x1="37.4" y1="106.4" x2="46.4" y2="106.4"/>
		
			<line fill="none" stroke="#FFFFFF" stroke-width="2" stroke-linecap="round" stroke-linejoin="round" stroke-miterlimit="10" x1="37.4" y1="112.5" x2="46.4" y2="112.5"/>
		<path fill="none" stroke="#FFFFFF" stroke-width="2" stroke-linecap="round" stroke-linejoin="round" stroke-miterlimit="10" d="
			M83.8,119.5H66.4c-0.2,0-0.4-0.2-0.4-0.4V95.9c0-0.3,0.2-0.5,0.5-0.5h17.3c0.3,0,0.5,0.2,0.5,0.5v23.2
			C84.2,119.4,84,119.5,83.8,119.5z"/>
		<path fill="none" stroke="#FFFFFF" stroke-width="2" stroke-linecap="round" stroke-linejoin="round" stroke-miterlimit="10" d="
			M116.1,119.5H98.7c-0.2,0-0.4-0.2-0.4-0.4V95.9c0-0.3,0.2-0.5,0.5-0.5h17.3c0.3,0,0.5,0.2,0.5,0.5v23.2
			C116.5,119.4,116.3,119.5,116.1,119.5z"/>
		
			<line fill="none" stroke="#FFFFFF" stroke-width="2" stroke-linecap="round" stroke-linejoin="round" stroke-miterlimit="10" x1="70.6" y1="101.1" x2="79.6" y2="101.1"/>
		
			<line fill="none" stroke="#FFFFFF" stroke-width="2" stroke-linecap="round" stroke-linejoin="round" stroke-miterlimit="10" x1="70.6" y1="106.4" x2="79.6" y2="106.4"/>
		
			<line fill="none" stroke="#FFFFFF" stroke-width="2" stroke-linecap="round" stroke-linejoin="round" stroke-miterlimit="10" x1="70.6" y1="112.5" x2="79.6" y2="112.5"/>
		
			<polyline fill="none" stroke="#FFFFFF" stroke-width="2" stroke-linecap="round" stroke-linejoin="round" stroke-miterlimit="10" points="
			102.9,108.6 106,111.4 111.6,103.6 		"/>
		
			<line fill="none" stroke="#FFFFFF" stroke-width="2" stroke-linecap="round" stroke-linejoin="round" stroke-miterlimit="10" x1="54.8" y1="82.7" x2="43.3" y2="95.5"/>
		
			<line fill="none" stroke="#FFFFFF" stroke-width="2" stroke-linecap="round" stroke-linejoin="round" stroke-miterlimit="10" x1="95.2" y1="82.7" x2="107.4" y2="95.7"/>
		
			<line fill="none" stroke="#FFFFFF" stroke-width="2" stroke-linecap="round" stroke-linejoin="round" stroke-miterlimit="10" x1="75.1" y1="88.5" x2="75.1" y2="95.5"/>
		<path fill="none" stroke="#FFFFFF" stroke-width="2" stroke-linecap="round" stroke-linejoin="round" stroke-miterlimit="10" d="
			M84.2,45.4h-4.6c-2.8,0-5.4-1.1-7.3-3l-0.9-0.9c-3.3,0-6,2.7-6,6v10.5c0,4.5,3.7,8.2,8.2,8.2H77c4.5,0,8.2-3.7,8.2-8.2V46.4
			C85.1,45.8,84.7,45.4,84.2,45.4z"/>
		<path fill="none" stroke="#FFFFFF" stroke-width="2" stroke-linecap="round" stroke-linejoin="round" stroke-miterlimit="10" d="
			M71.1,60.3h4.6c1.5,0,3-0.7,3.9-2l1.2-1.7"/>
		<path fill="none" stroke="#FFFFFF" stroke-width="2" stroke-linecap="round" stroke-linejoin="round" stroke-miterlimit="10" d="
			M84.9,50.3"/>
		<path fill="none" stroke="#FFFFFF" stroke-width="2" stroke-linecap="round" stroke-linejoin="round" stroke-miterlimit="10" d="
			M84.9,50.3h4.8v-7c0-6.7-5.4-12.2-12.2-12.2h-4c-6.7,0-12.2,5.4-12.2,12.2v7h4.1"/>
		<path fill="none" stroke="#FFFFFF" stroke-width="2" stroke-linecap="round" stroke-linejoin="round" stroke-miterlimit="10" d="
			M60.1,57.7h5.3v-7.5h-5.3c-0.3,0-0.6,0.3-0.6,0.6v6.3C59.5,57.4,59.8,57.7,60.1,57.7z"/>
		<path fill="none" stroke="#FFFFFF" stroke-width="2" stroke-linecap="round" stroke-linejoin="round" stroke-miterlimit="10" d="
			M85.1,57.7h5.3c0.3,0,0.6-0.3,0.6-0.6v-6.3c0-0.3-0.3-0.6-0.6-0.6h-5.3V57.7z"/>
		
			<polyline fill="none" stroke="#FFFFFF" stroke-width="2" stroke-linecap="round" stroke-linejoin="round" stroke-miterlimit="10" points="
			69.7,65.5 69.7,68.9 75,73.4 79.9,68.9 79.9,65.6 		"/>
		
			<rect x="69.1" y="48.9" fill="none" stroke="#FFFFFF" stroke-width="2" stroke-linecap="round" stroke-linejoin="round" stroke-miterlimit="10" width="2" height="1.9"/>
		
			<rect x="79" y="48.9" fill="none" stroke="#FFFFFF" stroke-width="2" stroke-linecap="round" stroke-linejoin="round" stroke-miterlimit="10" width="2" height="1.9"/>
		
			<line fill="none" stroke="#FFFFFF" stroke-width="2" stroke-linecap="round" stroke-linejoin="round" stroke-miterlimit="10" x1="74.8" y1="48.9" x2="74.8" y2="54.5"/>
		<path fill="none" stroke="#FFFFFF" stroke-width="2" stroke-linecap="round" stroke-linejoin="round" stroke-miterlimit="10" d="
			M69.5,68.6c-5.9,1.9-10.4,6.7-11.8,12.8"/>
		<path fill="none" stroke="#FFFFFF" stroke-width="2" stroke-linecap="round" stroke-linejoin="round" stroke-miterlimit="10" d="
			M91.9,82.1c-1.2-6.4-5.8-11.6-11.9-13.5"/>
		
			<polyline fill="none" stroke="#FFFFFF" stroke-width="2" stroke-linecap="round" stroke-linejoin="round" stroke-miterlimit="10" points="
			66.7,69.8 69,77 73.7,72.3 75,73.4 76.3,72.2 81.5,77 83,69.9 		"/>
		
			<polyline fill="none" stroke="#FFFFFF" stroke-width="2" stroke-linecap="round" stroke-linejoin="round" stroke-miterlimit="10" points="
			71.7,88.5 73.7,72.3 75,73.4 76.3,72.2 78.8,88.4 		"/>
	</g>
</g>
</svg>
